<svg width="93" height="20" viewBox="0 0 93 20" fill="none" xmlns="http://www.w3.org/2000/svg">
<path d="M6.5625 2.40625C5.75 2.40625 5.19141 2.64062 4.88672 3.10938C4.58984 3.57812 4.44141 4.39062 4.44141 5.54688V6.14453H7.53516V7.59766H4.44141V19H2.48438V7.59766H0.398438L0.5625 6.30859L2.48438 6.14453V5.57031C2.5 3.91406 2.80859 2.71484 3.41016 1.97266C4.01953 1.22266 5 0.847656 6.35156 0.847656C6.875 0.847656 7.51562 0.90625 8.27344 1.02344L8.14453 2.55859C7.44922 2.45703 6.92188 2.40625 6.5625 2.40625ZM13.1016 17.6875C14.0312 17.6875 14.8477 17.4336 15.5508 16.9258C16.2617 16.4102 16.7188 15.7188 16.9219 14.8516V12.6836C16.8828 12.6836 16.6445 12.7031 16.207 12.7422C15.7773 12.7812 15.4961 12.8047 15.3633 12.8125C13.668 12.9609 12.4844 13.2383 11.8125 13.6445C11.1484 14.0508 10.8164 14.7031 10.8164 15.6016C10.8164 16.2891 11.0195 16.8086 11.4258 17.1602C11.832 17.5117 12.3906 17.6875 13.1016 17.6875ZM17.3555 19C17.2383 18.5 17.125 17.9609 17.0156 17.3828C16.3047 18.0938 15.6367 18.5859 15.0117 18.8594C14.3867 19.1328 13.6523 19.2695 12.8086 19.2695C11.6055 19.2695 10.6367 18.957 9.90234 18.332C9.17578 17.6992 8.8125 16.793 8.8125 15.6133C8.8125 14.3008 9.30859 13.3281 10.3008 12.6953C11.3008 12.0625 12.7383 11.668 14.6133 11.5117C14.8711 11.4883 15.2578 11.457 15.7734 11.418C16.2969 11.3711 16.6875 11.3359 16.9453 11.3125V10.1758C16.9453 9.26953 16.7344 8.59766 16.3125 8.16016C15.8906 7.72266 15.2266 7.50391 14.3203 7.50391C13.0547 7.50391 11.7773 7.81641 10.4883 8.44141C10.4492 8.34766 10.3477 8.07812 10.1836 7.63281C10.0195 7.17969 9.93359 6.94531 9.92578 6.92969C10.4961 6.60938 11.1719 6.35547 11.9531 6.16797C12.7422 5.97266 13.543 5.875 14.3555 5.875C15.957 5.875 17.1094 6.22656 17.8125 6.92969C18.5234 7.625 18.8789 8.8125 18.8789 10.4922V19H17.3555ZM25.5469 19L20.5664 6.14453H22.6641L25.5 13.7852C25.5 13.7852 25.8906 14.8711 26.6719 17.043C26.9375 16.207 27.3047 15.1289 27.7734 13.8086C28.3672 12.1445 29.2891 9.58984 30.5391 6.14453H32.625L27.6797 19H25.5469ZM35.6133 12.6016C35.6133 14.125 35.9492 15.3477 36.6211 16.2695C37.3008 17.1836 38.2891 17.6406 39.5859 17.6406C40.8672 17.6406 41.832 17.1836 42.4805 16.2695C43.1367 15.3555 43.4648 14.125 43.4648 12.5781C43.4648 11.0078 43.1406 9.77344 42.4922 8.875C41.8516 7.96875 40.8711 7.51562 39.5508 7.51562C38.2695 7.51562 37.293 7.97656 36.6211 8.89844C35.9492 9.82031 35.6133 11.0547 35.6133 12.6016ZM45.4922 12.5664C45.4922 14.5586 44.9609 16.1758 43.8984 17.418C42.8359 18.6523 41.3672 19.2695 39.4922 19.2695C37.6875 19.2695 36.25 18.6445 35.1797 17.3945C34.1172 16.1445 33.5859 14.5391 33.5859 12.5781C33.5859 10.5781 34.1211 8.96094 35.1914 7.72656C36.2617 6.49219 37.7305 5.875 39.5977 5.875C41.4336 5.875 42.875 6.49609 43.9219 7.73828C44.9688 8.97266 45.4922 10.582 45.4922 12.5664ZM54.0352 6.02734C54.3867 6.02734 54.707 6.05078 54.9961 6.09766L54.9258 7.90234C54.5664 7.83984 54.2539 7.80859 53.9883 7.80859C52.8945 7.80859 52.0039 8.19141 51.3164 8.95703C50.6367 9.71484 50.2969 10.6562 50.2969 11.7812V19H48.3398C48.332 11.1094 48.3281 6.82422 48.3281 6.14453H49.957L50.1445 8.45312C50.5898 7.72656 51.1562 7.14062 51.8438 6.69531C52.5312 6.25 53.2617 6.02734 54.0352 6.02734ZM59.3203 6.14453V19H57.3516V6.14453H59.3203ZM59.3203 1.46875V3.78906H57.3516V1.46875H59.3203ZM67.1133 19.2344C65.8477 19.2344 64.9492 18.9258 64.418 18.3086C63.8867 17.6914 63.6055 16.6953 63.5742 15.3203V7.59766H61.6641L61.7461 6.30859L63.5625 6.14453L64.2305 3.20312L65.5195 3.15625V6.14453H69.0938V7.59766H65.5195V14.9688C65.5195 15.9453 65.668 16.6328 65.9648 17.0312C66.2617 17.4297 66.7695 17.6289 67.4883 17.6289C67.7461 17.6289 68.3047 17.5664 69.1641 17.4414L69.2461 18.9883C68.3164 19.1523 67.6055 19.2344 67.1133 19.2344ZM78.5977 8.52344C78.0273 7.83594 77.2422 7.49219 76.2422 7.49219C75.2422 7.49219 74.4258 7.84766 73.793 8.55859C73.1602 9.26172 72.7891 10.2266 72.6797 11.4531H79.4648C79.4648 10.1797 79.1758 9.20312 78.5977 8.52344ZM76.6289 19.2695C74.7617 19.2695 73.2891 18.6758 72.2109 17.4883C71.1406 16.3008 70.6055 14.6758 70.6055 12.6133C70.6055 10.6211 71.125 9.00781 72.1641 7.77344C73.2031 6.53125 74.5703 5.89844 76.2656 5.875C77.8594 5.875 79.1211 6.42188 80.0508 7.51562C80.9883 8.60156 81.457 10.0547 81.457 11.875C81.457 11.9688 81.4531 12.1406 81.4453 12.3906C81.4453 12.6406 81.4453 12.8203 81.4453 12.9297H72.6211C72.6445 14.3906 73.0195 15.5312 73.7461 16.3516C74.4805 17.1641 75.4648 17.5703 76.6992 17.5703C78.0586 17.5703 79.4219 17.2109 80.7891 16.4922L81.0938 18.0742C79.7891 18.8711 78.3008 19.2695 76.6289 19.2695ZM88.0078 19.2695C87.1328 19.2695 86.3242 19.1758 85.582 18.9883C84.8477 18.8008 84.25 18.5586 83.7891 18.2617L84.0352 16.6094C85.3398 17.3047 86.6211 17.6523 87.8789 17.6523C89.7852 17.6523 90.7656 16.9805 90.8203 15.6367C90.8203 15.0664 90.6172 14.6172 90.2109 14.2891C89.8047 13.9609 89.0078 13.5938 87.8203 13.1875L86.8477 12.8477C85.7227 12.4727 84.918 12.0078 84.4336 11.4531C83.957 10.8984 83.7148 10.207 83.707 9.37891C83.707 8.37109 84.1094 7.53516 84.9141 6.87109C85.7266 6.20703 86.8359 5.875 88.2422 5.875C89.6953 5.875 91.0195 6.15625 92.2148 6.71875L91.6406 8.21875C90.4297 7.71875 89.2969 7.46875 88.2422 7.46875C87.4219 7.46875 86.7773 7.63281 86.3086 7.96094C85.8477 8.28125 85.6172 8.73438 85.6172 9.32031C85.6172 9.82031 85.7852 10.2031 86.1211 10.4688C86.457 10.7344 87.1289 11.0391 88.1367 11.3828C88.3945 11.4766 88.7188 11.5859 89.1094 11.7109C90.4062 12.1328 91.3242 12.6328 91.8633 13.2109C92.4023 13.7812 92.6719 14.5547 92.6719 15.5312C92.6562 16.7188 92.2305 17.6406 91.3945 18.2969C90.5586 18.9453 89.4297 19.2695 88.0078 19.2695Z" fill="white"/>
</svg>
