<svg width="232" height="19" viewBox="0 0 232 19" fill="none" xmlns="http://www.w3.org/2000/svg">
<path d="M1.98438 5.14453V18H0.015625V5.14453H1.98438ZM1.98438 0.46875V2.78906H0.015625V0.46875H1.98438ZM5.67578 18V5.14453H7.31641L7.5625 6.98438C8.07031 6.35156 8.70312 5.84375 9.46094 5.46094C10.2266 5.07031 11.0508 4.875 11.9336 4.875C13.418 4.875 14.5156 5.29297 15.2266 6.12891C15.9375 6.95703 16.293 8.23438 16.293 9.96094V18H14.3359C14.3359 12.8438 14.332 10.082 14.3242 9.71484C14.293 8.62109 14.0703 7.82031 13.6562 7.3125C13.25 6.80469 12.5664 6.55078 11.6055 6.55078C10.5977 6.55078 9.75781 6.79297 9.08594 7.27734C8.41406 7.76172 7.97656 8.39062 7.77344 9.16406C7.69531 9.6875 7.65625 10.2891 7.65625 10.9688V18H5.67578ZM24.5664 16.582C25.8555 16.582 26.8125 16.168 27.4375 15.3398C28.0703 14.5117 28.3867 13.3281 28.3867 11.7891C28.3867 10.0547 28.082 8.75 27.4727 7.875C26.8711 6.99219 25.8945 6.55078 24.543 6.55078C23.9414 6.55078 23.4102 6.67969 22.9492 6.9375C22.4883 7.19531 22.1172 7.55469 21.8359 8.01562C21.5547 8.47656 21.3398 9.00781 21.1914 9.60938C21.0508 10.2031 20.9805 10.8555 20.9805 11.5664C20.9805 12.5664 21.1016 13.4336 21.3438 14.168C21.5938 14.9023 21.9922 15.4883 22.5391 15.9258C23.0859 16.3633 23.7617 16.582 24.5664 16.582ZM28.4219 16.1367C28 16.7852 27.4375 17.3008 26.7344 17.6836C26.0312 18.0664 25.2461 18.2578 24.3789 18.2578C22.6836 18.2578 21.3555 17.6562 20.3945 16.4531C19.4336 15.2422 18.9531 13.5977 18.9531 11.5195C18.9531 9.53516 19.4414 7.93359 20.418 6.71484C21.3945 5.48828 22.7031 4.875 24.3438 4.875C25.1953 4.875 25.9961 5.0625 26.7461 5.4375C27.5039 5.80469 28.0703 6.30078 28.4453 6.92578L28.4102 5.8125V0.152344L30.3438 0.0351562V18H28.6797L28.4219 16.1367ZM36.0625 5.14453V18H34.0938V5.14453H36.0625ZM36.0625 0.46875V2.78906H34.0938V0.46875H36.0625ZM43.0469 18L38.0664 5.14453H40.1641L43 12.7852C43 12.7852 43.3906 13.8711 44.1719 16.043C44.4375 15.207 44.8047 14.1289 45.2734 12.8086C45.8672 11.1445 46.7891 8.58984 48.0391 5.14453H50.125L45.1797 18H43.0469ZM54.1562 5.14453V18H52.1875V5.14453H54.1562ZM54.1562 0.46875V2.78906H52.1875V0.46875H54.1562ZM62.8633 16.582C64.1523 16.582 65.1094 16.168 65.7344 15.3398C66.3672 14.5117 66.6836 13.3281 66.6836 11.7891C66.6836 10.0547 66.3789 8.75 65.7695 7.875C65.168 6.99219 64.1914 6.55078 62.8398 6.55078C62.2383 6.55078 61.707 6.67969 61.2461 6.9375C60.7852 7.19531 60.4141 7.55469 60.1328 8.01562C59.8516 8.47656 59.6367 9.00781 59.4883 9.60938C59.3477 10.2031 59.2773 10.8555 59.2773 11.5664C59.2773 12.5664 59.3984 13.4336 59.6406 14.168C59.8906 14.9023 60.2891 15.4883 60.8359 15.9258C61.3828 16.3633 62.0586 16.582 62.8633 16.582ZM66.7188 16.1367C66.2969 16.7852 65.7344 17.3008 65.0312 17.6836C64.3281 18.0664 63.543 18.2578 62.6758 18.2578C60.9805 18.2578 59.6523 17.6562 58.6914 16.4531C57.7305 15.2422 57.25 13.5977 57.25 11.5195C57.25 9.53516 57.7383 7.93359 58.7148 6.71484C59.6914 5.48828 61 4.875 62.6406 4.875C63.4922 4.875 64.293 5.0625 65.043 5.4375C65.8008 5.80469 66.3672 6.30078 66.7422 6.92578L66.707 5.8125V0.152344L68.6406 0.0351562V18H66.9766L66.7188 16.1367ZM71.6055 13.7109V5.14453H73.5742V13.7344C73.5742 14.2969 73.6523 14.7734 73.8086 15.1641C73.9727 15.5547 74.2031 15.8594 74.5 16.0781C74.8047 16.2891 75.1445 16.4414 75.5195 16.5352C75.9023 16.6289 76.3398 16.6758 76.832 16.6758C77.8477 16.6758 78.6367 16.4531 79.1992 16.0078C79.7695 15.5625 80.0547 14.8047 80.0547 13.7344V5.14453H82.0234V13.7109C82.0234 14.3672 81.9297 14.957 81.7422 15.4805C81.5547 16.0039 81.3008 16.4414 80.9805 16.793C80.668 17.1367 80.2891 17.4219 79.8438 17.6484C79.3984 17.875 78.9258 18.0391 78.4258 18.1406C77.9336 18.2422 77.4023 18.293 76.832 18.293C76.2695 18.293 75.7383 18.2422 75.2383 18.1406C74.7383 18.0391 74.2617 17.875 73.8086 17.6484C73.3633 17.4141 72.9766 17.125 72.6484 16.7812C72.3281 16.4297 72.0742 15.9922 71.8867 15.4688C71.6992 14.9453 71.6055 14.3594 71.6055 13.7109ZM88.6562 16.6875C89.5859 16.6875 90.4023 16.4336 91.1055 15.9258C91.8164 15.4102 92.2734 14.7188 92.4766 13.8516V11.6836C92.4375 11.6836 92.1992 11.7031 91.7617 11.7422C91.332 11.7812 91.0508 11.8047 90.918 11.8125C89.2227 11.9609 88.0391 12.2383 87.3672 12.6445C86.7031 13.0508 86.3711 13.7031 86.3711 14.6016C86.3711 15.2891 86.5742 15.8086 86.9805 16.1602C87.3867 16.5117 87.9453 16.6875 88.6562 16.6875ZM92.9102 18C92.793 17.5 92.6797 16.9609 92.5703 16.3828C91.8594 17.0938 91.1914 17.5859 90.5664 17.8594C89.9414 18.1328 89.207 18.2695 88.3633 18.2695C87.1602 18.2695 86.1914 17.957 85.457 17.332C84.7305 16.6992 84.3672 15.793 84.3672 14.6133C84.3672 13.3008 84.8633 12.3281 85.8555 11.6953C86.8555 11.0625 88.293 10.668 90.168 10.5117C90.4258 10.4883 90.8125 10.457 91.3281 10.418C91.8516 10.3711 92.2422 10.3359 92.5 10.3125V9.17578C92.5 8.26953 92.2891 7.59766 91.8672 7.16016C91.4453 6.72266 90.7812 6.50391 89.875 6.50391C88.6094 6.50391 87.332 6.81641 86.043 7.44141C86.0039 7.34766 85.9023 7.07812 85.7383 6.63281C85.5742 6.17969 85.4883 5.94531 85.4805 5.92969C86.0508 5.60938 86.7266 5.35547 87.5078 5.16797C88.2969 4.97266 89.0977 4.875 89.9102 4.875C91.5117 4.875 92.6641 5.22656 93.3672 5.92969C94.0781 6.625 94.4336 7.8125 94.4336 9.49219V18H92.9102ZM101.266 18.2344C100.016 18.2344 99.1289 17.8984 98.6055 17.2266C98.0898 16.5547 97.832 15.3867 97.832 13.7227V0.152344L99.7773 0.0351562V12.9492C99.7773 13.4805 99.7812 13.9062 99.7891 14.2266C99.8047 14.5469 99.8359 14.8633 99.8828 15.1758C99.9297 15.4805 99.9922 15.7109 100.07 15.8672C100.148 16.0234 100.262 16.168 100.41 16.3008C100.559 16.4258 100.734 16.5117 100.938 16.5586C101.148 16.5977 101.406 16.6172 101.711 16.6172C101.961 16.6172 102.453 16.5703 103.188 16.4766L103.293 18.0352C102.488 18.168 101.812 18.2344 101.266 18.2344Z" fill="#95C22B"/>
<path d="M111.918 11.6016C111.918 13.125 112.254 14.3477 112.926 15.2695C113.605 16.1836 114.594 16.6406 115.891 16.6406C117.172 16.6406 118.137 16.1836 118.785 15.2695C119.441 14.3555 119.77 13.125 119.77 11.5781C119.77 10.0078 119.445 8.77344 118.797 7.875C118.156 6.96875 117.176 6.51562 115.855 6.51562C114.574 6.51562 113.598 6.97656 112.926 7.89844C112.254 8.82031 111.918 10.0547 111.918 11.6016ZM121.797 11.5664C121.797 13.5586 121.266 15.1758 120.203 16.418C119.141 17.6523 117.672 18.2695 115.797 18.2695C113.992 18.2695 112.555 17.6445 111.484 16.3945C110.422 15.1445 109.891 13.5391 109.891 11.5781C109.891 9.57812 110.426 7.96094 111.496 6.72656C112.566 5.49219 114.035 4.875 115.902 4.875C117.738 4.875 119.18 5.49609 120.227 6.73828C121.273 7.97266 121.797 9.58203 121.797 11.5664ZM124.574 18V5.14453H126.215L126.461 6.98438C126.969 6.35156 127.602 5.84375 128.359 5.46094C129.125 5.07031 129.949 4.875 130.832 4.875C132.316 4.875 133.414 5.29297 134.125 6.12891C134.836 6.95703 135.191 8.23438 135.191 9.96094V18H133.234C133.234 12.8438 133.23 10.082 133.223 9.71484C133.191 8.62109 132.969 7.82031 132.555 7.3125C132.148 6.80469 131.465 6.55078 130.504 6.55078C129.496 6.55078 128.656 6.79297 127.984 7.27734C127.312 7.76172 126.875 8.39062 126.672 9.16406C126.594 9.6875 126.555 10.2891 126.555 10.9688V18H124.574ZM137.781 12.1758V10.4531H143.641V12.1758H137.781ZM151.34 16.582C152.629 16.582 153.586 16.168 154.211 15.3398C154.844 14.5117 155.16 13.3281 155.16 11.7891C155.16 10.0547 154.855 8.75 154.246 7.875C153.645 6.99219 152.668 6.55078 151.316 6.55078C150.715 6.55078 150.184 6.67969 149.723 6.9375C149.262 7.19531 148.891 7.55469 148.609 8.01562C148.328 8.47656 148.113 9.00781 147.965 9.60938C147.824 10.2031 147.754 10.8555 147.754 11.5664C147.754 12.5664 147.875 13.4336 148.117 14.168C148.367 14.9023 148.766 15.4883 149.312 15.9258C149.859 16.3633 150.535 16.582 151.34 16.582ZM155.195 16.1367C154.773 16.7852 154.211 17.3008 153.508 17.6836C152.805 18.0664 152.02 18.2578 151.152 18.2578C149.457 18.2578 148.129 17.6562 147.168 16.4531C146.207 15.2422 145.727 13.5977 145.727 11.5195C145.727 9.53516 146.215 7.93359 147.191 6.71484C148.168 5.48828 149.477 4.875 151.117 4.875C151.969 4.875 152.77 5.0625 153.52 5.4375C154.277 5.80469 154.844 6.30078 155.219 6.92578L155.184 5.8125V0.152344L157.117 0.0351562V18H155.453L155.195 16.1367ZM167.934 7.52344C167.363 6.83594 166.578 6.49219 165.578 6.49219C164.578 6.49219 163.762 6.84766 163.129 7.55859C162.496 8.26172 162.125 9.22656 162.016 10.4531H168.801C168.801 9.17969 168.512 8.20312 167.934 7.52344ZM165.965 18.2695C164.098 18.2695 162.625 17.6758 161.547 16.4883C160.477 15.3008 159.941 13.6758 159.941 11.6133C159.941 9.62109 160.461 8.00781 161.5 6.77344C162.539 5.53125 163.906 4.89844 165.602 4.875C167.195 4.875 168.457 5.42188 169.387 6.51562C170.324 7.60156 170.793 9.05469 170.793 10.875C170.793 10.9688 170.789 11.1406 170.781 11.3906C170.781 11.6406 170.781 11.8203 170.781 11.9297H161.957C161.98 13.3906 162.355 14.5312 163.082 15.3516C163.816 16.1641 164.801 16.5703 166.035 16.5703C167.395 16.5703 168.758 16.2109 170.125 15.4922L170.43 17.0742C169.125 17.8711 167.637 18.2695 165.965 18.2695ZM189.836 18V11.3086C189.836 10.6836 189.82 10.1602 189.789 9.73828C189.766 9.31641 189.703 8.88672 189.602 8.44922C189.508 8.01172 189.371 7.66797 189.191 7.41797C189.02 7.16016 188.777 6.95312 188.465 6.79688C188.152 6.63281 187.777 6.55078 187.34 6.55078C186.48 6.55078 185.746 6.78125 185.137 7.24219C184.535 7.70312 184.105 8.35156 183.848 9.1875C183.777 9.75 183.742 10.3516 183.742 10.9922V18H181.785V11.0977C181.785 10.5195 181.766 10.0195 181.727 9.59766C181.688 9.16797 181.613 8.75391 181.504 8.35547C181.395 7.94922 181.246 7.62109 181.059 7.37109C180.879 7.12109 180.637 6.92188 180.332 6.77344C180.027 6.625 179.664 6.55078 179.242 6.55078C178.305 6.55078 177.516 6.78906 176.875 7.26562C176.242 7.74219 175.816 8.375 175.598 9.16406C175.527 9.76562 175.492 10.418 175.492 11.1211V18H173.535C173.52 9.96094 173.512 5.67578 173.512 5.14453H175.152L175.398 6.98438C175.789 6.39062 176.344 5.89062 177.062 5.48438C177.781 5.07812 178.598 4.875 179.512 4.875C179.988 4.875 180.426 4.92578 180.824 5.02734C181.23 5.12109 181.566 5.24219 181.832 5.39062C182.105 5.53906 182.348 5.71875 182.559 5.92969C182.77 6.13281 182.934 6.33594 183.051 6.53906C183.168 6.73438 183.266 6.94141 183.344 7.16016C184.281 5.63672 185.715 4.875 187.645 4.875C189.074 4.875 190.121 5.28516 190.785 6.10547C191.457 6.91797 191.793 8.125 191.793 9.72656V18H189.836ZM198.016 16.6875C198.945 16.6875 199.762 16.4336 200.465 15.9258C201.176 15.4102 201.633 14.7188 201.836 13.8516V11.6836C201.797 11.6836 201.559 11.7031 201.121 11.7422C200.691 11.7812 200.41 11.8047 200.277 11.8125C198.582 11.9609 197.398 12.2383 196.727 12.6445C196.062 13.0508 195.73 13.7031 195.73 14.6016C195.73 15.2891 195.934 15.8086 196.34 16.1602C196.746 16.5117 197.305 16.6875 198.016 16.6875ZM202.27 18C202.152 17.5 202.039 16.9609 201.93 16.3828C201.219 17.0938 200.551 17.5859 199.926 17.8594C199.301 18.1328 198.566 18.2695 197.723 18.2695C196.52 18.2695 195.551 17.957 194.816 17.332C194.09 16.6992 193.727 15.793 193.727 14.6133C193.727 13.3008 194.223 12.3281 195.215 11.6953C196.215 11.0625 197.652 10.668 199.527 10.5117C199.785 10.4883 200.172 10.457 200.688 10.418C201.211 10.3711 201.602 10.3359 201.859 10.3125V9.17578C201.859 8.26953 201.648 7.59766 201.227 7.16016C200.805 6.72266 200.141 6.50391 199.234 6.50391C197.969 6.50391 196.691 6.81641 195.402 7.44141C195.363 7.34766 195.262 7.07812 195.098 6.63281C194.934 6.17969 194.848 5.94531 194.84 5.92969C195.41 5.60938 196.086 5.35547 196.867 5.16797C197.656 4.97266 198.457 4.875 199.27 4.875C200.871 4.875 202.023 5.22656 202.727 5.92969C203.438 6.625 203.793 7.8125 203.793 9.49219V18H202.27ZM207.168 18V5.14453H208.809L209.055 6.98438C209.562 6.35156 210.195 5.84375 210.953 5.46094C211.719 5.07031 212.543 4.875 213.426 4.875C214.91 4.875 216.008 5.29297 216.719 6.12891C217.43 6.95703 217.785 8.23438 217.785 9.96094V18H215.828C215.828 12.8438 215.824 10.082 215.816 9.71484C215.785 8.62109 215.562 7.82031 215.148 7.3125C214.742 6.80469 214.059 6.55078 213.098 6.55078C212.09 6.55078 211.25 6.79297 210.578 7.27734C209.906 7.76172 209.469 8.39062 209.266 9.16406C209.188 9.6875 209.148 10.2891 209.148 10.9688V18H207.168ZM226.059 16.582C227.348 16.582 228.305 16.168 228.93 15.3398C229.562 14.5117 229.879 13.3281 229.879 11.7891C229.879 10.0547 229.574 8.75 228.965 7.875C228.363 6.99219 227.387 6.55078 226.035 6.55078C225.434 6.55078 224.902 6.67969 224.441 6.9375C223.98 7.19531 223.609 7.55469 223.328 8.01562C223.047 8.47656 222.832 9.00781 222.684 9.60938C222.543 10.2031 222.473 10.8555 222.473 11.5664C222.473 12.5664 222.594 13.4336 222.836 14.168C223.086 14.9023 223.484 15.4883 224.031 15.9258C224.578 16.3633 225.254 16.582 226.059 16.582ZM229.914 16.1367C229.492 16.7852 228.93 17.3008 228.227 17.6836C227.523 18.0664 226.738 18.2578 225.871 18.2578C224.176 18.2578 222.848 17.6562 221.887 16.4531C220.926 15.2422 220.445 13.5977 220.445 11.5195C220.445 9.53516 220.934 7.93359 221.91 6.71484C222.887 5.48828 224.195 4.875 225.836 4.875C226.688 4.875 227.488 5.0625 228.238 5.4375C228.996 5.80469 229.562 6.30078 229.938 6.92578L229.902 5.8125V0.152344L231.836 0.0351562V18H230.172L229.914 16.1367Z" fill="white"/>
</svg>
