<svg width="215" height="24" viewBox="0 0 215 24" fill="none" xmlns="http://www.w3.org/2000/svg">
<path d="M3.26172 23.7656L3.08594 21.2812H4.64453C6.44922 21.2812 7.71094 21.0391 8.42969 20.5547C9.14844 20.0781 9.50781 19.1992 9.50781 17.918C9.50781 17.3945 9.48438 16.8281 9.4375 16.2188C9.23438 16.5 9.03906 16.7344 8.85156 16.9219C8.67188 17.1016 8.44141 17.2812 8.16016 17.4609C7.88672 17.6406 7.55469 17.7773 7.16406 17.8711C6.78125 17.957 6.34375 18 5.85156 18C4.14844 18 2.74609 17.3867 1.64453 16.1602C0.550781 14.9336 0.00390625 13.3516 0.00390625 11.4141C0.00390625 10.3828 0.15625 9.44531 0.460938 8.60156C0.765625 7.75 1.17969 7.05078 1.70312 6.50391C2.22656 5.95703 2.82812 5.53906 3.50781 5.25C4.19531 4.95312 4.92578 4.80469 5.69922 4.80469C7.42578 4.80469 8.71094 5.43359 9.55469 6.69141L9.76562 5.12109H12.5078V17.0859C12.5078 17.7266 12.4766 18.3008 12.4141 18.8086C12.3516 19.3242 12.2422 19.8164 12.0859 20.2852C11.9297 20.7617 11.7227 21.1758 11.4648 21.5273C11.2148 21.8789 10.8984 22.1992 10.5156 22.4883C10.1328 22.7773 9.67969 23.0117 9.15625 23.1914C8.64062 23.3789 8.03906 23.5195 7.35156 23.6133C6.66406 23.7148 5.89062 23.7656 5.03125 23.7656H3.26172ZM6.34375 15.8555C8.46094 15.8555 9.53125 14.4375 9.55469 11.6016V11.1562C9.53906 9.88281 9.27344 8.89844 8.75781 8.20312C8.24219 7.50781 7.48828 7.15625 6.49609 7.14844C5.37109 7.14844 4.51953 7.53516 3.94141 8.30859C3.36328 9.07422 3.07422 10.1094 3.07422 11.4141C3.07422 12.6719 3.36328 13.7266 3.94141 14.5781C4.52734 15.4297 5.32812 15.8555 6.34375 15.8555ZM20.0547 18.1758C19.1719 18.1758 18.4375 18.0742 17.8516 17.8711C17.2734 17.6602 16.8164 17.3281 16.4805 16.875C16.1445 16.4219 15.9102 15.8828 15.7773 15.2578C15.6445 14.6328 15.5781 13.8555 15.5781 12.9258V0.375L18.6484 0.175781V12.8672C18.6484 14.0234 18.7852 14.8086 19.0586 15.2227C19.332 15.6289 19.8633 15.832 20.6523 15.832C21.043 15.832 21.5391 15.7891 22.1406 15.7031L22.2227 17.8945C22.2148 17.8945 22.1172 17.9141 21.9297 17.9531C21.75 17.9922 21.5742 18.0234 21.4023 18.0469C21.2383 18.0781 21.0273 18.1055 20.7695 18.1289C20.5117 18.1602 20.2734 18.1758 20.0547 18.1758ZM29.6289 18.2461C27.5586 18.2461 25.9453 17.6523 24.7891 16.4648C23.6406 15.2695 23.0664 13.6211 23.0664 11.5195C23.0664 9.47266 23.6094 7.84375 24.6953 6.63281C25.7812 5.42188 27.2617 4.8125 29.1367 4.80469C30.9102 4.80469 32.2852 5.35938 33.2617 6.46875C34.2461 7.57812 34.7383 9.05078 34.7383 10.8867C34.7383 11.0195 34.7344 11.2344 34.7266 11.5312C34.7266 11.8281 34.7266 12.0469 34.7266 12.1875H26.1602C26.1914 13.3906 26.5195 14.3242 27.1445 14.9883C27.7773 15.6445 28.6445 15.9727 29.7461 15.9727C31.1523 15.9727 32.5039 15.6055 33.8008 14.8711L34.2344 17.0508C32.9453 17.8477 31.4102 18.2461 29.6289 18.2461ZM26.2188 10.2539H31.8438C31.8438 9.20703 31.6055 8.40234 31.1289 7.83984C30.6523 7.27734 29.9922 6.99609 29.1484 6.99609C28.3594 6.99609 27.6914 7.26953 27.1445 7.81641C26.6055 8.36328 26.2969 9.17578 26.2188 10.2539ZM40.5977 18.2461C39.4023 18.2461 38.4336 17.918 37.6914 17.2617C36.957 16.5977 36.5898 15.6445 36.5898 14.4023C36.5898 13.0664 37.0273 12.0781 37.9023 11.4375C38.7773 10.7891 40.0977 10.3789 41.8633 10.207C42.1055 10.1758 42.3672 10.1445 42.6484 10.1133C42.9297 10.082 43.2461 10.0508 43.5977 10.0195C43.9492 9.98828 44.2266 9.96094 44.4297 9.9375V9.25781C44.4297 8.47656 44.25 7.91016 43.8906 7.55859C43.5312 7.19922 42.9844 7.01953 42.25 7.01953C41.2031 7.01953 39.9102 7.3125 38.3711 7.89844C38.3633 7.875 38.2344 7.51953 37.9844 6.83203C37.7344 6.14453 37.6055 5.79297 37.5977 5.77734C39.1133 5.12891 40.7539 4.80469 42.5195 4.80469C44.2539 4.80469 45.5156 5.18359 46.3047 5.94141C47.0938 6.69141 47.4883 7.91016 47.4883 9.59766V18H45.2148C45.207 17.9688 45.1211 17.707 44.957 17.2148C44.793 16.7227 44.7109 16.4609 44.7109 16.4297C44.0703 17.0547 43.4414 17.5156 42.8242 17.8125C42.2148 18.1016 41.4727 18.2461 40.5977 18.2461ZM41.4297 16.0664C42.1406 16.0664 42.7578 15.8984 43.2812 15.5625C43.8125 15.2188 44.1914 14.8047 44.418 14.3203V11.8359C44.3945 11.8359 44.1875 11.8516 43.7969 11.8828C43.4141 11.9141 43.207 11.9297 43.1758 11.9297C41.9336 12.0391 41.0234 12.2734 40.4453 12.6328C39.8672 12.9922 39.5781 13.5703 39.5781 14.3672C39.5781 14.9141 39.7383 15.3359 40.0586 15.6328C40.3789 15.9219 40.8359 16.0664 41.4297 16.0664ZM50.582 18V5.12109H53.0547L53.3945 6.75C54.707 5.45312 56.1641 4.80469 57.7656 4.80469C59.2656 4.80469 60.3867 5.23828 61.1289 6.10547C61.8789 6.96484 62.2539 8.21484 62.2539 9.85547V18H59.1719V10.2305C59.1641 9.19141 58.9961 8.41406 58.668 7.89844C58.3398 7.38281 57.75 7.125 56.8984 7.125C56.2344 7.125 55.625 7.29688 55.0703 7.64062C54.5234 7.97656 54.125 8.40234 53.875 8.91797C53.7266 9.52734 53.6523 10.4648 53.6523 11.7305V18H50.582Z" fill="#95C22B"/>
<path d="M65.3945 23.5781V5.14453H67.1172L67.3047 6.89062C68.4297 5.54688 69.7812 4.875 71.3594 4.875C72.5312 4.875 73.5234 5.16797 74.3359 5.75391C75.1484 6.33984 75.7461 7.13281 76.1289 8.13281C76.5195 9.13281 76.7148 10.3008 76.7148 11.6367C76.7148 12.918 76.5039 14.0586 76.082 15.0586C75.6602 16.0508 75.0391 16.8359 74.2188 17.4141C73.4062 17.9844 72.4531 18.2695 71.3594 18.2695C70.5312 18.2695 69.7539 18.0859 69.0273 17.7188C68.3008 17.3438 67.7188 16.8516 67.2812 16.2422C67.3281 17.0859 67.3516 17.9062 67.3516 18.7031V23.4492L65.3945 23.5781ZM71.0898 16.6172C71.6836 16.6172 72.2148 16.4844 72.6836 16.2188C73.1523 15.9453 73.5312 15.5742 73.8203 15.1055C74.1094 14.6367 74.3281 14.1055 74.4766 13.5117C74.625 12.9102 74.6992 12.2617 74.6992 11.5664C74.6992 10.0977 74.3906 8.89453 73.7734 7.95703C73.1562 7.01172 72.2539 6.53906 71.0664 6.53906C68.582 6.53906 67.3398 8.14453 67.3398 11.3555C67.3398 13.0977 67.6289 14.4102 68.207 15.293C68.793 16.1758 69.7539 16.6172 71.0898 16.6172ZM85.2461 5.02734C85.5977 5.02734 85.918 5.05078 86.207 5.09766L86.1367 6.90234C85.7773 6.83984 85.4648 6.80859 85.1992 6.80859C84.1055 6.80859 83.2148 7.19141 82.5273 7.95703C81.8477 8.71484 81.5078 9.65625 81.5078 10.7812V18H79.5508C79.543 10.1094 79.5391 5.82422 79.5391 5.14453H81.168L81.3555 7.45312C81.8008 6.72656 82.3672 6.14062 83.0547 5.69531C83.7422 5.25 84.4727 5.02734 85.2461 5.02734ZM89.418 11.6016C89.418 13.125 89.7539 14.3477 90.4258 15.2695C91.1055 16.1836 92.0938 16.6406 93.3906 16.6406C94.6719 16.6406 95.6367 16.1836 96.2852 15.2695C96.9414 14.3555 97.2695 13.125 97.2695 11.5781C97.2695 10.0078 96.9453 8.77344 96.2969 7.875C95.6562 6.96875 94.6758 6.51562 93.3555 6.51562C92.0742 6.51562 91.0977 6.97656 90.4258 7.89844C89.7539 8.82031 89.418 10.0547 89.418 11.6016ZM99.2969 11.5664C99.2969 13.5586 98.7656 15.1758 97.7031 16.418C96.6406 17.6523 95.1719 18.2695 93.2969 18.2695C91.4922 18.2695 90.0547 17.6445 88.9844 16.3945C87.9219 15.1445 87.3906 13.5391 87.3906 11.5781C87.3906 9.57812 87.9258 7.96094 88.9961 6.72656C90.0664 5.49219 91.5352 4.875 93.4023 4.875C95.2383 4.875 96.6797 5.49609 97.7266 6.73828C98.7734 7.97266 99.2969 9.58203 99.2969 11.5664ZM104.266 5.14453V19.6289C104.266 20.457 104.211 21.125 104.102 21.6328C104 22.1406 103.801 22.5703 103.504 22.9219C103.215 23.2812 102.82 23.5312 102.32 23.6719C101.82 23.8125 101.168 23.8828 100.363 23.8828H99.7539L99.4961 22.1133H100.105C100.41 22.1133 100.672 22.0938 100.891 22.0547C101.117 22.0234 101.309 21.9805 101.465 21.9258C101.629 21.8711 101.762 21.7812 101.863 21.6562C101.965 21.5312 102.043 21.4102 102.098 21.293C102.16 21.1836 102.203 21.0156 102.227 20.7891C102.258 20.5625 102.277 20.3594 102.285 20.1797C102.293 20 102.297 19.7461 102.297 19.418V5.14453H104.266ZM104.266 0.46875V2.78906H102.297V0.46875H104.266ZM114.707 7.52344C114.137 6.83594 113.352 6.49219 112.352 6.49219C111.352 6.49219 110.535 6.84766 109.902 7.55859C109.27 8.26172 108.898 9.22656 108.789 10.4531H115.574C115.574 9.17969 115.285 8.20312 114.707 7.52344ZM112.738 18.2695C110.871 18.2695 109.398 17.6758 108.32 16.4883C107.25 15.3008 106.715 13.6758 106.715 11.6133C106.715 9.62109 107.234 8.00781 108.273 6.77344C109.312 5.53125 110.68 4.89844 112.375 4.875C113.969 4.875 115.23 5.42188 116.16 6.51562C117.098 7.60156 117.566 9.05469 117.566 10.875C117.566 10.9688 117.562 11.1406 117.555 11.3906C117.555 11.6406 117.555 11.8203 117.555 11.9297H108.73C108.754 13.3906 109.129 14.5312 109.855 15.3516C110.59 16.1641 111.574 16.5703 112.809 16.5703C114.168 16.5703 115.531 16.2109 116.898 15.4922L117.203 17.0742C115.898 17.8711 114.41 18.2695 112.738 18.2695ZM125.723 18.2695C123.832 18.2695 122.352 17.6562 121.281 16.4297C120.219 15.2031 119.688 13.5977 119.688 11.6133C119.695 9.61328 120.238 7.99219 121.316 6.75C122.402 5.5 123.887 4.875 125.77 4.875C126.434 4.875 127.074 4.95703 127.691 5.12109C128.316 5.28516 128.809 5.5 129.168 5.76562L128.629 7.28906C127.715 6.79688 126.75 6.55078 125.734 6.55078C124.492 6.55078 123.508 7.00391 122.781 7.91016C122.062 8.81641 121.703 10.0547 121.703 11.625C121.703 13.1562 122.059 14.3711 122.77 15.2695C123.488 16.1602 124.48 16.6055 125.746 16.6055C126.754 16.6055 127.785 16.332 128.84 15.7852L129.086 17.3438C128.234 17.9609 127.113 18.2695 125.723 18.2695ZM135.73 18.2344C134.465 18.2344 133.566 17.9258 133.035 17.3086C132.504 16.6914 132.223 15.6953 132.191 14.3203V6.59766H130.281L130.363 5.30859L132.18 5.14453L132.848 2.20312L134.137 2.15625V5.14453H137.711V6.59766H134.137V13.9688C134.137 14.9453 134.285 15.6328 134.582 16.0312C134.879 16.4297 135.387 16.6289 136.105 16.6289C136.363 16.6289 136.922 16.5664 137.781 16.4414L137.863 17.9883C136.934 18.1523 136.223 18.2344 135.73 18.2344Z" fill="#7B4425"/>
<path d="M149.23 18.2461C148.035 18.2461 147.066 17.918 146.324 17.2617C145.59 16.5977 145.223 15.6445 145.223 14.4023C145.223 13.0664 145.66 12.0781 146.535 11.4375C147.41 10.7891 148.73 10.3789 150.496 10.207C150.738 10.1758 151 10.1445 151.281 10.1133C151.562 10.082 151.879 10.0508 152.23 10.0195C152.582 9.98828 152.859 9.96094 153.062 9.9375V9.25781C153.062 8.47656 152.883 7.91016 152.523 7.55859C152.164 7.19922 151.617 7.01953 150.883 7.01953C149.836 7.01953 148.543 7.3125 147.004 7.89844C146.996 7.875 146.867 7.51953 146.617 6.83203C146.367 6.14453 146.238 5.79297 146.23 5.77734C147.746 5.12891 149.387 4.80469 151.152 4.80469C152.887 4.80469 154.148 5.18359 154.938 5.94141C155.727 6.69141 156.121 7.91016 156.121 9.59766V18H153.848C153.84 17.9688 153.754 17.707 153.59 17.2148C153.426 16.7227 153.344 16.4609 153.344 16.4297C152.703 17.0547 152.074 17.5156 151.457 17.8125C150.848 18.1016 150.105 18.2461 149.23 18.2461ZM150.062 16.0664C150.773 16.0664 151.391 15.8984 151.914 15.5625C152.445 15.2188 152.824 14.8047 153.051 14.3203V11.8359C153.027 11.8359 152.82 11.8516 152.43 11.8828C152.047 11.9141 151.84 11.9297 151.809 11.9297C150.566 12.0391 149.656 12.2734 149.078 12.6328C148.5 12.9922 148.211 13.5703 148.211 14.3672C148.211 14.9141 148.371 15.3359 148.691 15.6328C149.012 15.9219 149.469 16.0664 150.062 16.0664ZM164.008 18.2461C162.328 18.2461 161.008 17.6289 160.047 16.3945C159.086 15.1602 158.605 13.5117 158.605 11.4492C158.605 9.44922 159.082 7.84375 160.035 6.63281C160.996 5.41406 162.316 4.80469 163.996 4.80469C165.824 4.80469 167.117 5.45312 167.875 6.75C167.797 5.98438 167.758 5.24609 167.758 4.53516V0.375L170.828 0.175781V18H168.168L167.828 16.2422C167.695 16.4531 167.57 16.6367 167.453 16.793C167.344 16.9414 167.18 17.1172 166.961 17.3203C166.742 17.5156 166.504 17.6758 166.246 17.8008C165.996 17.918 165.676 18.0195 165.285 18.1055C164.902 18.1992 164.477 18.2461 164.008 18.2461ZM164.734 15.9141C166.797 15.9141 167.844 14.5117 167.875 11.707C167.875 10.1211 167.609 8.96484 167.078 8.23828C166.547 7.51172 165.754 7.14844 164.699 7.14844C163.777 7.14844 163.039 7.51953 162.484 8.26172C161.938 8.99609 161.664 10.082 161.664 11.5195C161.664 12.9492 161.938 14.0391 162.484 14.7891C163.039 15.5391 163.789 15.9141 164.734 15.9141ZM173.98 18V5.12109H176.465L176.816 6.76172C176.973 6.56641 177.121 6.39453 177.262 6.24609C177.41 6.08984 177.609 5.91797 177.859 5.73047C178.117 5.53516 178.387 5.375 178.668 5.25C178.957 5.125 179.309 5.01953 179.723 4.93359C180.145 4.84766 180.594 4.80469 181.07 4.80469C182.094 4.80469 182.91 5.01172 183.52 5.42578C184.137 5.83984 184.57 6.32422 184.82 6.87891C185.281 6.21484 185.879 5.70312 186.613 5.34375C187.348 4.98438 188.164 4.80469 189.062 4.80469C190.539 4.80469 191.621 5.22266 192.309 6.05859C193.004 6.89453 193.352 8.13281 193.352 9.77344V18H190.27V10.6875C190.27 9.42969 190.129 8.52344 189.848 7.96875C189.574 7.40625 189.047 7.125 188.266 7.125C187.07 7.125 186.211 7.66406 185.688 8.74219C185.469 9.21875 185.32 9.79297 185.242 10.4648V18H182.172V10.5469C182.172 9.39844 182.02 8.54297 181.715 7.98047C181.41 7.41797 180.859 7.13672 180.062 7.13672C179.414 7.13672 178.855 7.30078 178.387 7.62891C177.918 7.95703 177.562 8.38672 177.32 8.91797C177.141 9.70703 177.051 10.6523 177.051 11.7539V18H173.98ZM196.457 18V5.12109H199.527V18H196.457ZM196.457 3.24609V0.621094H199.539V3.24609H196.457ZM202.738 18V5.12109H205.211L205.551 6.75C206.863 5.45312 208.32 4.80469 209.922 4.80469C211.422 4.80469 212.543 5.23828 213.285 6.10547C214.035 6.96484 214.41 8.21484 214.41 9.85547V18H211.328V10.2305C211.32 9.19141 211.152 8.41406 210.824 7.89844C210.496 7.38281 209.906 7.125 209.055 7.125C208.391 7.125 207.781 7.29688 207.227 7.64062C206.68 7.97656 206.281 8.40234 206.031 8.91797C205.883 9.52734 205.809 10.4648 205.809 11.7305V18H202.738Z" fill="#5B5B5B"/>
</svg>
