<svg width="224" height="24" viewBox="0 0 224 24" fill="none" xmlns="http://www.w3.org/2000/svg">
<path d="M4.13672 23.7656L3.96094 21.2812H5.51953C7.32422 21.2812 8.58594 21.0391 9.30469 20.5547C10.0234 20.0781 10.3828 19.1992 10.3828 17.918C10.3828 17.3945 10.3594 16.8281 10.3125 16.2188C10.1094 16.5 9.91406 16.7344 9.72656 16.9219C9.54688 17.1016 9.31641 17.2812 9.03516 17.4609C8.76172 17.6406 8.42969 17.7773 8.03906 17.8711C7.65625 17.957 7.21875 18 6.72656 18C5.02344 18 3.62109 17.3867 2.51953 16.1602C1.42578 14.9336 0.878906 13.3516 0.878906 11.4141C0.878906 10.3828 1.03125 9.44531 1.33594 8.60156C1.64062 7.75 2.05469 7.05078 2.57812 6.50391C3.10156 5.95703 3.70312 5.53906 4.38281 5.25C5.07031 4.95312 5.80078 4.80469 6.57422 4.80469C8.30078 4.80469 9.58594 5.43359 10.4297 6.69141L10.6406 5.12109H13.3828V17.0859C13.3828 17.7266 13.3516 18.3008 13.2891 18.8086C13.2266 19.3242 13.1172 19.8164 12.9609 20.2852C12.8047 20.7617 12.5977 21.1758 12.3398 21.5273C12.0898 21.8789 11.7734 22.1992 11.3906 22.4883C11.0078 22.7773 10.5547 23.0117 10.0312 23.1914C9.51562 23.3789 8.91406 23.5195 8.22656 23.6133C7.53906 23.7148 6.76562 23.7656 5.90625 23.7656H4.13672ZM7.21875 15.8555C9.33594 15.8555 10.4062 14.4375 10.4297 11.6016V11.1562C10.4141 9.88281 10.1484 8.89844 9.63281 8.20312C9.11719 7.50781 8.36328 7.15625 7.37109 7.14844C6.24609 7.14844 5.39453 7.53516 4.81641 8.30859C4.23828 9.07422 3.94922 10.1094 3.94922 11.4141C3.94922 12.6719 4.23828 13.7266 4.81641 14.5781C5.40234 15.4297 6.20312 15.8555 7.21875 15.8555ZM20.9297 18.1758C20.0469 18.1758 19.3125 18.0742 18.7266 17.8711C18.1484 17.6602 17.6914 17.3281 17.3555 16.875C17.0195 16.4219 16.7852 15.8828 16.6523 15.2578C16.5195 14.6328 16.4531 13.8555 16.4531 12.9258V0.375L19.5234 0.175781V12.8672C19.5234 14.0234 19.6602 14.8086 19.9336 15.2227C20.207 15.6289 20.7383 15.832 21.5273 15.832C21.918 15.832 22.4141 15.7891 23.0156 15.7031L23.0977 17.8945C23.0898 17.8945 22.9922 17.9141 22.8047 17.9531C22.625 17.9922 22.4492 18.0234 22.2773 18.0469C22.1133 18.0781 21.9023 18.1055 21.6445 18.1289C21.3867 18.1602 21.1484 18.1758 20.9297 18.1758ZM30.5039 18.2461C28.4336 18.2461 26.8203 17.6523 25.6641 16.4648C24.5156 15.2695 23.9414 13.6211 23.9414 11.5195C23.9414 9.47266 24.4844 7.84375 25.5703 6.63281C26.6562 5.42188 28.1367 4.8125 30.0117 4.80469C31.7852 4.80469 33.1602 5.35938 34.1367 6.46875C35.1211 7.57812 35.6133 9.05078 35.6133 10.8867C35.6133 11.0195 35.6094 11.2344 35.6016 11.5312C35.6016 11.8281 35.6016 12.0469 35.6016 12.1875H27.0352C27.0664 13.3906 27.3945 14.3242 28.0195 14.9883C28.6523 15.6445 29.5195 15.9727 30.6211 15.9727C32.0273 15.9727 33.3789 15.6055 34.6758 14.8711L35.1094 17.0508C33.8203 17.8477 32.2852 18.2461 30.5039 18.2461ZM27.0938 10.2539H32.7188C32.7188 9.20703 32.4805 8.40234 32.0039 7.83984C31.5273 7.27734 30.8672 6.99609 30.0234 6.99609C29.2344 6.99609 28.5664 7.26953 28.0195 7.81641C27.4805 8.36328 27.1719 9.17578 27.0938 10.2539ZM41.4727 18.2461C40.2773 18.2461 39.3086 17.918 38.5664 17.2617C37.832 16.5977 37.4648 15.6445 37.4648 14.4023C37.4648 13.0664 37.9023 12.0781 38.7773 11.4375C39.6523 10.7891 40.9727 10.3789 42.7383 10.207C42.9805 10.1758 43.2422 10.1445 43.5234 10.1133C43.8047 10.082 44.1211 10.0508 44.4727 10.0195C44.8242 9.98828 45.1016 9.96094 45.3047 9.9375V9.25781C45.3047 8.47656 45.125 7.91016 44.7656 7.55859C44.4062 7.19922 43.8594 7.01953 43.125 7.01953C42.0781 7.01953 40.7852 7.3125 39.2461 7.89844C39.2383 7.875 39.1094 7.51953 38.8594 6.83203C38.6094 6.14453 38.4805 5.79297 38.4727 5.77734C39.9883 5.12891 41.6289 4.80469 43.3945 4.80469C45.1289 4.80469 46.3906 5.18359 47.1797 5.94141C47.9688 6.69141 48.3633 7.91016 48.3633 9.59766V18H46.0898C46.082 17.9688 45.9961 17.707 45.832 17.2148C45.668 16.7227 45.5859 16.4609 45.5859 16.4297C44.9453 17.0547 44.3164 17.5156 43.6992 17.8125C43.0898 18.1016 42.3477 18.2461 41.4727 18.2461ZM42.3047 16.0664C43.0156 16.0664 43.6328 15.8984 44.1562 15.5625C44.6875 15.2188 45.0664 14.8047 45.293 14.3203V11.8359C45.2695 11.8359 45.0625 11.8516 44.6719 11.8828C44.2891 11.9141 44.082 11.9297 44.0508 11.9297C42.8086 12.0391 41.8984 12.2734 41.3203 12.6328C40.7422 12.9922 40.4531 13.5703 40.4531 14.3672C40.4531 14.9141 40.6133 15.3359 40.9336 15.6328C41.2539 15.9219 41.7109 16.0664 42.3047 16.0664ZM51.457 18V5.12109H53.9297L54.2695 6.75C55.582 5.45312 57.0391 4.80469 58.6406 4.80469C60.1406 4.80469 61.2617 5.23828 62.0039 6.10547C62.7539 6.96484 63.1289 8.21484 63.1289 9.85547V18H60.0469V10.2305C60.0391 9.19141 59.8711 8.41406 59.543 7.89844C59.2148 7.38281 58.625 7.125 57.7734 7.125C57.1094 7.125 56.5 7.29688 55.9453 7.64062C55.3984 7.97656 55 8.40234 54.75 8.91797C54.6016 9.52734 54.5273 10.4648 54.5273 11.7305V18H51.457Z" fill="#95C22B"/>
<path d="M66.2695 23.5781V5.14453H67.9922L68.1797 6.89062C69.3047 5.54688 70.6562 4.875 72.2344 4.875C73.4062 4.875 74.3984 5.16797 75.2109 5.75391C76.0234 6.33984 76.6211 7.13281 77.0039 8.13281C77.3945 9.13281 77.5898 10.3008 77.5898 11.6367C77.5898 12.918 77.3789 14.0586 76.957 15.0586C76.5352 16.0508 75.9141 16.8359 75.0938 17.4141C74.2812 17.9844 73.3281 18.2695 72.2344 18.2695C71.4062 18.2695 70.6289 18.0859 69.9023 17.7188C69.1758 17.3438 68.5938 16.8516 68.1562 16.2422C68.2031 17.0859 68.2266 17.9062 68.2266 18.7031V23.4492L66.2695 23.5781ZM71.9648 16.6172C72.5586 16.6172 73.0898 16.4844 73.5586 16.2188C74.0273 15.9453 74.4062 15.5742 74.6953 15.1055C74.9844 14.6367 75.2031 14.1055 75.3516 13.5117C75.5 12.9102 75.5742 12.2617 75.5742 11.5664C75.5742 10.0977 75.2656 8.89453 74.6484 7.95703C74.0312 7.01172 73.1289 6.53906 71.9414 6.53906C69.457 6.53906 68.2148 8.14453 68.2148 11.3555C68.2148 13.0977 68.5039 14.4102 69.082 15.293C69.668 16.1758 70.6289 16.6172 71.9648 16.6172ZM86.1211 5.02734C86.4727 5.02734 86.793 5.05078 87.082 5.09766L87.0117 6.90234C86.6523 6.83984 86.3398 6.80859 86.0742 6.80859C84.9805 6.80859 84.0898 7.19141 83.4023 7.95703C82.7227 8.71484 82.3828 9.65625 82.3828 10.7812V18H80.4258C80.418 10.1094 80.4141 5.82422 80.4141 5.14453H82.043L82.2305 7.45312C82.6758 6.72656 83.2422 6.14062 83.9297 5.69531C84.6172 5.25 85.3477 5.02734 86.1211 5.02734ZM90.293 11.6016C90.293 13.125 90.6289 14.3477 91.3008 15.2695C91.9805 16.1836 92.9688 16.6406 94.2656 16.6406C95.5469 16.6406 96.5117 16.1836 97.1602 15.2695C97.8164 14.3555 98.1445 13.125 98.1445 11.5781C98.1445 10.0078 97.8203 8.77344 97.1719 7.875C96.5312 6.96875 95.5508 6.51562 94.2305 6.51562C92.9492 6.51562 91.9727 6.97656 91.3008 7.89844C90.6289 8.82031 90.293 10.0547 90.293 11.6016ZM100.172 11.5664C100.172 13.5586 99.6406 15.1758 98.5781 16.418C97.5156 17.6523 96.0469 18.2695 94.1719 18.2695C92.3672 18.2695 90.9297 17.6445 89.8594 16.3945C88.7969 15.1445 88.2656 13.5391 88.2656 11.5781C88.2656 9.57812 88.8008 7.96094 89.8711 6.72656C90.9414 5.49219 92.4102 4.875 94.2773 4.875C96.1133 4.875 97.5547 5.49609 98.6016 6.73828C99.6484 7.97266 100.172 9.58203 100.172 11.5664ZM105.141 5.14453V19.6289C105.141 20.457 105.086 21.125 104.977 21.6328C104.875 22.1406 104.676 22.5703 104.379 22.9219C104.09 23.2812 103.695 23.5312 103.195 23.6719C102.695 23.8125 102.043 23.8828 101.238 23.8828H100.629L100.371 22.1133H100.98C101.285 22.1133 101.547 22.0938 101.766 22.0547C101.992 22.0234 102.184 21.9805 102.34 21.9258C102.504 21.8711 102.637 21.7812 102.738 21.6562C102.84 21.5312 102.918 21.4102 102.973 21.293C103.035 21.1836 103.078 21.0156 103.102 20.7891C103.133 20.5625 103.152 20.3594 103.16 20.1797C103.168 20 103.172 19.7461 103.172 19.418V5.14453H105.141ZM105.141 0.46875V2.78906H103.172V0.46875H105.141ZM115.582 7.52344C115.012 6.83594 114.227 6.49219 113.227 6.49219C112.227 6.49219 111.41 6.84766 110.777 7.55859C110.145 8.26172 109.773 9.22656 109.664 10.4531H116.449C116.449 9.17969 116.16 8.20312 115.582 7.52344ZM113.613 18.2695C111.746 18.2695 110.273 17.6758 109.195 16.4883C108.125 15.3008 107.59 13.6758 107.59 11.6133C107.59 9.62109 108.109 8.00781 109.148 6.77344C110.188 5.53125 111.555 4.89844 113.25 4.875C114.844 4.875 116.105 5.42188 117.035 6.51562C117.973 7.60156 118.441 9.05469 118.441 10.875C118.441 10.9688 118.438 11.1406 118.43 11.3906C118.43 11.6406 118.43 11.8203 118.43 11.9297H109.605C109.629 13.3906 110.004 14.5312 110.73 15.3516C111.465 16.1641 112.449 16.5703 113.684 16.5703C115.043 16.5703 116.406 16.2109 117.773 15.4922L118.078 17.0742C116.773 17.8711 115.285 18.2695 113.613 18.2695ZM126.598 18.2695C124.707 18.2695 123.227 17.6562 122.156 16.4297C121.094 15.2031 120.562 13.5977 120.562 11.6133C120.57 9.61328 121.113 7.99219 122.191 6.75C123.277 5.5 124.762 4.875 126.645 4.875C127.309 4.875 127.949 4.95703 128.566 5.12109C129.191 5.28516 129.684 5.5 130.043 5.76562L129.504 7.28906C128.59 6.79688 127.625 6.55078 126.609 6.55078C125.367 6.55078 124.383 7.00391 123.656 7.91016C122.938 8.81641 122.578 10.0547 122.578 11.625C122.578 13.1562 122.934 14.3711 123.645 15.2695C124.363 16.1602 125.355 16.6055 126.621 16.6055C127.629 16.6055 128.66 16.332 129.715 15.7852L129.961 17.3438C129.109 17.9609 127.988 18.2695 126.598 18.2695ZM136.605 18.2344C135.34 18.2344 134.441 17.9258 133.91 17.3086C133.379 16.6914 133.098 15.6953 133.066 14.3203V6.59766H131.156L131.238 5.30859L133.055 5.14453L133.723 2.20312L135.012 2.15625V5.14453H138.586V6.59766H135.012V13.9688C135.012 14.9453 135.16 15.6328 135.457 16.0312C135.754 16.4297 136.262 16.6289 136.98 16.6289C137.238 16.6289 137.797 16.5664 138.656 16.4414L138.738 17.9883C137.809 18.1523 137.098 18.2344 136.605 18.2344Z" fill="#7B4425"/>
<path d="M152.344 18.2461C150.375 18.2461 148.84 17.6602 147.738 16.4883C146.645 15.3164 146.098 13.6406 146.098 11.4609C146.098 9.35156 146.672 7.71484 147.82 6.55078C148.977 5.38672 150.496 4.80469 152.379 4.80469C153.887 4.80469 155.16 5.12891 156.199 5.77734L155.473 7.96875C154.41 7.41406 153.422 7.13672 152.508 7.13672C151.469 7.13672 150.648 7.50781 150.047 8.25C149.453 8.99219 149.156 10.0742 149.156 11.4961C149.156 12.9336 149.449 14.0273 150.035 14.7773C150.629 15.5273 151.465 15.9023 152.543 15.9023C153.668 15.9023 154.75 15.5703 155.789 14.9062L156.082 17.2383C155.543 17.5977 154.984 17.8555 154.406 18.0117C153.828 18.168 153.141 18.2461 152.344 18.2461ZM164.039 15.9141C165.078 15.9141 165.859 15.5352 166.383 14.7773C166.906 14.0195 167.168 12.9336 167.168 11.5195C167.168 10.0898 166.906 9 166.383 8.25C165.859 7.5 165.07 7.125 164.016 7.125C162.977 7.125 162.191 7.50391 161.66 8.26172C161.137 9.01172 160.875 10.1016 160.875 11.5312C160.875 12.9375 161.141 14.0195 161.672 14.7773C162.203 15.5352 162.992 15.9141 164.039 15.9141ZM163.957 18.2461C162.051 18.2461 160.551 17.6289 159.457 16.3945C158.363 15.1602 157.816 13.5352 157.816 11.5195C157.816 9.44141 158.363 7.80469 159.457 6.60938C160.551 5.40625 162.094 4.80469 164.086 4.80469C166.008 4.80469 167.512 5.41797 168.598 6.64453C169.691 7.86328 170.238 9.48828 170.238 11.5195C170.238 13.5742 169.688 15.2109 168.586 16.4297C167.484 17.6406 165.941 18.2461 163.957 18.2461ZM182.039 16.9922C181.016 17.8281 179.668 18.2461 177.996 18.2461C176.324 18.2461 174.977 17.8281 173.953 16.9922C172.938 16.1562 172.43 14.9297 172.43 13.3125V5.12109H175.512V13.1953C175.512 14.1562 175.711 14.8516 176.109 15.2812C176.516 15.7109 177.156 15.9258 178.031 15.9258C178.891 15.9258 179.516 15.7148 179.906 15.293C180.305 14.8633 180.504 14.1641 180.504 13.1953V5.12109H183.574V13.3125C183.574 14.9219 183.062 16.1484 182.039 16.9922ZM186.398 18V5.12109H188.977L189.375 7.08984C190.219 5.73828 191.441 5.0625 193.043 5.0625C193.379 5.0625 193.652 5.07812 193.863 5.10938L193.816 7.67578C193.504 7.62891 193.18 7.60547 192.844 7.60547C191.711 7.60547 190.863 7.90625 190.301 8.50781C189.746 9.10938 189.469 9.94531 189.469 11.0156V18H186.398ZM195.809 18V5.12109H198.879V18H195.809ZM195.809 3.24609V0.621094H198.891V3.24609H195.809ZM208.043 18.2461C205.973 18.2461 204.359 17.6523 203.203 16.4648C202.055 15.2695 201.48 13.6211 201.48 11.5195C201.48 9.47266 202.023 7.84375 203.109 6.63281C204.195 5.42188 205.676 4.8125 207.551 4.80469C209.324 4.80469 210.699 5.35938 211.676 6.46875C212.66 7.57812 213.152 9.05078 213.152 10.8867C213.152 11.0195 213.148 11.2344 213.141 11.5312C213.141 11.8281 213.141 12.0469 213.141 12.1875H204.574C204.605 13.3906 204.934 14.3242 205.559 14.9883C206.191 15.6445 207.059 15.9727 208.16 15.9727C209.566 15.9727 210.918 15.6055 212.215 14.8711L212.648 17.0508C211.359 17.8477 209.824 18.2461 208.043 18.2461ZM204.633 10.2539H210.258C210.258 9.20703 210.02 8.40234 209.543 7.83984C209.066 7.27734 208.406 6.99609 207.562 6.99609C206.773 6.99609 206.105 7.26953 205.559 7.81641C205.02 8.36328 204.711 9.17578 204.633 10.2539ZM215.672 18V5.12109H218.25L218.648 7.08984C219.492 5.73828 220.715 5.0625 222.316 5.0625C222.652 5.0625 222.926 5.07812 223.137 5.10938L223.09 7.67578C222.777 7.62891 222.453 7.60547 222.117 7.60547C220.984 7.60547 220.137 7.90625 219.574 8.50781C219.02 9.10938 218.742 9.94531 218.742 11.0156V18H215.672Z" fill="#5B5B5B"/>
</svg>
