<svg width="105" height="19" viewBox="0 0 105 19" fill="none" xmlns="http://www.w3.org/2000/svg">
<path d="M3.10254 18.3242L2.9707 16.4609H4.13965C5.49316 16.4609 6.43945 16.2793 6.97852 15.916C7.51758 15.5586 7.78711 14.8994 7.78711 13.9385C7.78711 13.5459 7.76953 13.1211 7.73438 12.6641C7.58203 12.875 7.43555 13.0508 7.29492 13.1914C7.16016 13.3262 6.9873 13.4609 6.77637 13.5957C6.57129 13.7305 6.32227 13.833 6.0293 13.9033C5.74219 13.9678 5.41406 14 5.04492 14C3.76758 14 2.71582 13.54 1.88965 12.6201C1.06934 11.7002 0.65918 10.5137 0.65918 9.06055C0.65918 8.28711 0.773438 7.58398 1.00195 6.95117C1.23047 6.3125 1.54102 5.78809 1.93359 5.37793C2.32617 4.96777 2.77734 4.6543 3.28711 4.4375C3.80273 4.21484 4.35059 4.10352 4.93066 4.10352C6.22559 4.10352 7.18945 4.5752 7.82227 5.51855L7.98047 4.34082H10.0371V13.3145C10.0371 13.7949 10.0137 14.2256 9.9668 14.6064C9.91992 14.9932 9.83789 15.3623 9.7207 15.7139C9.60352 16.0713 9.44824 16.3818 9.25488 16.6455C9.06738 16.9092 8.83008 17.1494 8.54297 17.3662C8.25586 17.583 7.91602 17.7588 7.52344 17.8936C7.13672 18.0342 6.68555 18.1396 6.16992 18.21C5.6543 18.2861 5.07422 18.3242 4.42969 18.3242H3.10254ZM5.41406 12.3916C7.00195 12.3916 7.80469 11.3281 7.82227 9.20117V8.86719C7.81055 7.91211 7.61133 7.17383 7.22461 6.65234C6.83789 6.13086 6.27246 5.86719 5.52832 5.86133C4.68457 5.86133 4.0459 6.15137 3.6123 6.73145C3.17871 7.30566 2.96191 8.08203 2.96191 9.06055C2.96191 10.0039 3.17871 10.7949 3.6123 11.4336C4.05176 12.0723 4.65234 12.3916 5.41406 12.3916ZM15.6973 14.1318C15.0352 14.1318 14.4844 14.0557 14.0449 13.9033C13.6113 13.7451 13.2686 13.4961 13.0166 13.1562C12.7646 12.8164 12.5889 12.4121 12.4893 11.9434C12.3896 11.4746 12.3398 10.8916 12.3398 10.1943V0.78125L14.6426 0.631836V10.1504C14.6426 11.0176 14.7451 11.6064 14.9502 11.917C15.1553 12.2217 15.5537 12.374 16.1455 12.374C16.4385 12.374 16.8105 12.3418 17.2617 12.2773L17.3232 13.9209C17.3174 13.9209 17.2441 13.9355 17.1035 13.9648C16.9688 13.9941 16.8369 14.0176 16.708 14.0352C16.585 14.0586 16.4268 14.0791 16.2334 14.0967C16.04 14.1201 15.8613 14.1318 15.6973 14.1318ZM22.8779 14.1846C21.3252 14.1846 20.1152 13.7393 19.248 12.8486C18.3867 11.9521 17.9561 10.7158 17.9561 9.13965C17.9561 7.60449 18.3633 6.38281 19.1777 5.47461C19.9922 4.56641 21.1025 4.10938 22.5088 4.10352C23.8389 4.10352 24.8701 4.51953 25.6025 5.35156C26.3408 6.18359 26.71 7.28809 26.71 8.66504C26.71 8.76465 26.707 8.92578 26.7012 9.14844C26.7012 9.37109 26.7012 9.53516 26.7012 9.64062H20.2764C20.2998 10.543 20.5459 11.2432 21.0146 11.7412C21.4893 12.2334 22.1396 12.4795 22.9658 12.4795C24.0205 12.4795 25.0342 12.2041 26.0068 11.6533L26.332 13.2881C25.3652 13.8857 24.2139 14.1846 22.8779 14.1846ZM20.3203 8.19043H24.5391C24.5391 7.40527 24.3604 6.80176 24.0029 6.37988C23.6455 5.95801 23.1504 5.74707 22.5176 5.74707C21.9258 5.74707 21.4248 5.95215 21.0146 6.3623C20.6104 6.77246 20.3789 7.38184 20.3203 8.19043ZM31.1045 14.1846C30.208 14.1846 29.4814 13.9385 28.9248 13.4463C28.374 12.9482 28.0986 12.2334 28.0986 11.3018C28.0986 10.2998 28.4268 9.55859 29.083 9.07812C29.7393 8.5918 30.7295 8.28418 32.0537 8.15527C32.2354 8.13184 32.4316 8.1084 32.6426 8.08496C32.8535 8.06152 33.0908 8.03809 33.3545 8.01465C33.6182 7.99121 33.8262 7.9707 33.9785 7.95312V7.44336C33.9785 6.85742 33.8438 6.43262 33.5742 6.16895C33.3047 5.89941 32.8945 5.76465 32.3438 5.76465C31.5586 5.76465 30.5889 5.98438 29.4346 6.42383C29.4287 6.40625 29.332 6.13965 29.1445 5.62402C28.957 5.1084 28.8604 4.84473 28.8545 4.83301C29.9912 4.34668 31.2217 4.10352 32.5459 4.10352C33.8467 4.10352 34.793 4.3877 35.3848 4.95605C35.9766 5.51855 36.2725 6.43262 36.2725 7.69824V14H34.5674C34.5615 13.9766 34.4971 13.7803 34.374 13.4111C34.251 13.042 34.1895 12.8457 34.1895 12.8223C33.709 13.291 33.2373 13.6367 32.7744 13.8594C32.3174 14.0762 31.7607 14.1846 31.1045 14.1846ZM31.7285 12.5498C32.2617 12.5498 32.7246 12.4238 33.1172 12.1719C33.5156 11.9141 33.7998 11.6035 33.9697 11.2402V9.37695C33.9521 9.37695 33.7969 9.38867 33.5039 9.41211C33.2168 9.43555 33.0615 9.44727 33.0381 9.44727C32.1064 9.5293 31.4238 9.70508 30.9902 9.97461C30.5566 10.2441 30.3398 10.6777 30.3398 11.2754C30.3398 11.6855 30.46 12.002 30.7002 12.2246C30.9404 12.4414 31.2832 12.5498 31.7285 12.5498ZM38.5928 14V4.34082H40.4473L40.7021 5.5625C41.6865 4.58984 42.7793 4.10352 43.9805 4.10352C45.1055 4.10352 45.9463 4.42871 46.5029 5.0791C47.0654 5.72363 47.3467 6.66113 47.3467 7.8916V14H45.0352V8.17285C45.0293 7.39355 44.9033 6.81055 44.6572 6.42383C44.4111 6.03711 43.9688 5.84375 43.3301 5.84375C42.832 5.84375 42.375 5.97266 41.959 6.23047C41.5488 6.48242 41.25 6.80176 41.0625 7.18848C40.9512 7.64551 40.8955 8.34863 40.8955 9.29785V14H38.5928Z" fill="#95C22B"/>
<path d="M49.7021 18.1836V4.3584H50.9941L51.1348 5.66797C51.9785 4.66016 52.9922 4.15625 54.1758 4.15625C55.0547 4.15625 55.7988 4.37598 56.4082 4.81543C57.0176 5.25488 57.4658 5.84961 57.7529 6.59961C58.0459 7.34961 58.1924 8.22559 58.1924 9.22754C58.1924 10.1885 58.0342 11.0439 57.7178 11.7939C57.4014 12.5381 56.9355 13.127 56.3203 13.5605C55.7109 13.9883 54.9961 14.2021 54.1758 14.2021C53.5547 14.2021 52.9717 14.0645 52.4268 13.7891C51.8818 13.5078 51.4453 13.1387 51.1172 12.6816C51.1523 13.3145 51.1699 13.9297 51.1699 14.5273V18.0869L49.7021 18.1836ZM53.9736 12.9629C54.4189 12.9629 54.8174 12.8633 55.1689 12.6641C55.5205 12.459 55.8047 12.1807 56.0215 11.8291C56.2383 11.4775 56.4023 11.0791 56.5137 10.6338C56.625 10.1826 56.6807 9.69629 56.6807 9.1748C56.6807 8.07324 56.4492 7.1709 55.9863 6.46777C55.5234 5.75879 54.8467 5.4043 53.9561 5.4043C52.0928 5.4043 51.1611 6.6084 51.1611 9.0166C51.1611 10.3232 51.3779 11.3076 51.8115 11.9697C52.251 12.6318 52.9717 12.9629 53.9736 12.9629ZM64.5908 4.27051C64.8545 4.27051 65.0947 4.28809 65.3115 4.32324L65.2588 5.67676C64.9893 5.62988 64.7549 5.60645 64.5557 5.60645C63.7354 5.60645 63.0674 5.89355 62.5518 6.46777C62.042 7.03613 61.7871 7.74219 61.7871 8.58594V14H60.3193C60.3135 8.08203 60.3105 4.86816 60.3105 4.3584H61.5322L61.6729 6.08984C62.0068 5.54492 62.4316 5.10547 62.9473 4.77148C63.4629 4.4375 64.0107 4.27051 64.5908 4.27051ZM67.7197 9.20117C67.7197 10.3438 67.9717 11.2607 68.4756 11.9521C68.9854 12.6377 69.7266 12.9805 70.6992 12.9805C71.6602 12.9805 72.3838 12.6377 72.8701 11.9521C73.3623 11.2666 73.6084 10.3438 73.6084 9.18359C73.6084 8.00586 73.3652 7.08008 72.8789 6.40625C72.3984 5.72656 71.6631 5.38672 70.6729 5.38672C69.7119 5.38672 68.9795 5.73242 68.4756 6.42383C67.9717 7.11523 67.7197 8.04102 67.7197 9.20117ZM75.1289 9.1748C75.1289 10.6689 74.7305 11.8818 73.9336 12.8135C73.1367 13.7393 72.0352 14.2021 70.6289 14.2021C69.2754 14.2021 68.1973 13.7334 67.3945 12.7959C66.5977 11.8584 66.1992 10.6543 66.1992 9.18359C66.1992 7.68359 66.6006 6.4707 67.4033 5.54492C68.2061 4.61914 69.3076 4.15625 70.708 4.15625C72.085 4.15625 73.166 4.62207 73.9512 5.55371C74.7363 6.47949 75.1289 7.68652 75.1289 9.1748ZM78.8555 4.3584V15.2217C78.8555 15.8428 78.8145 16.3438 78.7324 16.7246C78.6562 17.1055 78.5068 17.4277 78.2842 17.6914C78.0674 17.9609 77.7715 18.1484 77.3965 18.2539C77.0215 18.3594 76.5322 18.4121 75.9287 18.4121H75.4717L75.2783 17.085H75.7354C75.9639 17.085 76.1602 17.0703 76.3242 17.041C76.4941 17.0176 76.6377 16.9854 76.7549 16.9443C76.8779 16.9033 76.9775 16.8359 77.0537 16.7422C77.1299 16.6484 77.1885 16.5576 77.2295 16.4697C77.2764 16.3877 77.3086 16.2617 77.3262 16.0918C77.3496 15.9219 77.3643 15.7695 77.3701 15.6348C77.376 15.5 77.3789 15.3096 77.3789 15.0635V4.3584H78.8555ZM78.8555 0.851562V2.5918H77.3789V0.851562H78.8555ZM86.6865 6.14258C86.2588 5.62695 85.6699 5.36914 84.9199 5.36914C84.1699 5.36914 83.5576 5.63574 83.083 6.16895C82.6084 6.69629 82.3301 7.41992 82.248 8.33984H87.3369C87.3369 7.38477 87.1201 6.65234 86.6865 6.14258ZM85.21 14.2021C83.8096 14.2021 82.7051 13.7568 81.8965 12.8662C81.0938 11.9756 80.6924 10.7568 80.6924 9.20996C80.6924 7.71582 81.082 6.50586 81.8613 5.58008C82.6406 4.64844 83.666 4.17383 84.9375 4.15625C86.1328 4.15625 87.0791 4.56641 87.7764 5.38672C88.4795 6.20117 88.8311 7.29102 88.8311 8.65625C88.8311 8.72656 88.8281 8.85547 88.8223 9.04297C88.8223 9.23047 88.8223 9.36523 88.8223 9.44727H82.2041C82.2217 10.543 82.5029 11.3984 83.0479 12.0137C83.5986 12.623 84.3369 12.9277 85.2627 12.9277C86.2822 12.9277 87.3047 12.6582 88.3301 12.1191L88.5586 13.3057C87.5801 13.9033 86.4639 14.2021 85.21 14.2021ZM94.9482 14.2021C93.5303 14.2021 92.4199 13.7422 91.6172 12.8223C90.8203 11.9023 90.4219 10.6982 90.4219 9.20996C90.4277 7.70996 90.835 6.49414 91.6436 5.5625C92.458 4.625 93.5713 4.15625 94.9834 4.15625C95.4814 4.15625 95.9619 4.21777 96.4248 4.34082C96.8936 4.46387 97.2627 4.625 97.5322 4.82422L97.1279 5.9668C96.4424 5.59766 95.7188 5.41309 94.957 5.41309C94.0254 5.41309 93.2871 5.75293 92.7422 6.43262C92.2031 7.1123 91.9336 8.04102 91.9336 9.21875C91.9336 10.3672 92.2002 11.2783 92.7334 11.9521C93.2725 12.6201 94.0166 12.9541 94.9658 12.9541C95.7217 12.9541 96.4951 12.749 97.2861 12.3389L97.4707 13.5078C96.832 13.9707 95.9912 14.2021 94.9482 14.2021ZM102.454 14.1758C101.505 14.1758 100.831 13.9443 100.433 13.4814C100.034 13.0186 99.8232 12.2715 99.7998 11.2402V5.44824H98.3672L98.4287 4.48145L99.791 4.3584L100.292 2.15234L101.259 2.11719V4.3584H103.939V5.44824H101.259V10.9766C101.259 11.709 101.37 12.2246 101.593 12.5234C101.815 12.8223 102.196 12.9717 102.735 12.9717C102.929 12.9717 103.348 12.9248 103.992 12.8311L104.054 13.9912C103.356 14.1143 102.823 14.1758 102.454 14.1758Z" fill="white"/>
</svg>
