<svg width="13" height="14" viewBox="0 0 13 14" fill="none" xmlns="http://www.w3.org/2000/svg">
<path d="M6.5 7C7.36195 7 8.1886 6.63125 8.7981 5.97487C9.40759 5.3185 9.75 4.42826 9.75 3.5C9.75 2.57174 9.40759 1.6815 8.7981 1.02513C8.1886 0.368749 7.36195 0 6.5 0C5.63805 0 4.8114 0.368749 4.2019 1.02513C3.59241 1.6815 3.25 2.57174 3.25 3.5C3.25 4.42826 3.59241 5.3185 4.2019 5.97487C4.8114 6.63125 5.63805 7 6.5 7ZM8.66667 3.5C8.66667 4.11884 8.43839 4.71233 8.03206 5.14992C7.62574 5.5875 7.07464 5.83333 6.5 5.83333C5.92536 5.83333 5.37426 5.5875 4.96794 5.14992C4.56161 4.71233 4.33333 4.11884 4.33333 3.5C4.33333 2.88116 4.56161 2.28767 4.96794 1.85008C5.37426 1.4125 5.92536 1.16667 6.5 1.16667C7.07464 1.16667 7.62574 1.4125 8.03206 1.85008C8.43839 2.28767 8.66667 2.88116 8.66667 3.5ZM13 12.8333C13 14 11.9167 14 11.9167 14H1.08333C1.08333 14 0 14 0 12.8333C0 11.6667 1.08333 8.16667 6.5 8.16667C11.9167 8.16667 13 11.6667 13 12.8333ZM11.9167 12.8287C11.9156 12.5417 11.7498 11.6783 11.0153 10.8873C10.309 10.1267 8.97975 9.33333 6.5 9.33333C4.01917 9.33333 2.691 10.1267 1.98467 10.8873C1.25017 11.6783 1.0855 12.5417 1.08333 12.8287H11.9167Z" fill="#95C22B"/>
</svg>
