<svg width="213" height="24" viewBox="0 0 213 24" fill="none" xmlns="http://www.w3.org/2000/svg">
<path d="M4.50781 18.2695C3.63281 18.2695 2.82422 18.1758 2.08203 17.9883C1.34766 17.8008 0.75 17.5586 0.289062 17.2617L0.535156 15.6094C1.83984 16.3047 3.12109 16.6523 4.37891 16.6523C6.28516 16.6523 7.26562 15.9805 7.32031 14.6367C7.32031 14.0664 7.11719 13.6172 6.71094 13.2891C6.30469 12.9609 5.50781 12.5938 4.32031 12.1875L3.34766 11.8477C2.22266 11.4727 1.41797 11.0078 0.933594 10.4531C0.457031 9.89844 0.214844 9.20703 0.207031 8.37891C0.207031 7.37109 0.609375 6.53516 1.41406 5.87109C2.22656 5.20703 3.33594 4.875 4.74219 4.875C6.19531 4.875 7.51953 5.15625 8.71484 5.71875L8.14062 7.21875C6.92969 6.71875 5.79688 6.46875 4.74219 6.46875C3.92188 6.46875 3.27734 6.63281 2.80859 6.96094C2.34766 7.28125 2.11719 7.73438 2.11719 8.32031C2.11719 8.82031 2.28516 9.20312 2.62109 9.46875C2.95703 9.73438 3.62891 10.0391 4.63672 10.3828C4.89453 10.4766 5.21875 10.5859 5.60938 10.7109C6.90625 11.1328 7.82422 11.6328 8.36328 12.2109C8.90234 12.7812 9.17188 13.5547 9.17188 14.5312C9.15625 15.7188 8.73047 16.6406 7.89453 17.2969C7.05859 17.9453 5.92969 18.2695 4.50781 18.2695ZM11.4102 13.7109V5.14453H13.3789V13.7344C13.3789 14.2969 13.457 14.7734 13.6133 15.1641C13.7773 15.5547 14.0078 15.8594 14.3047 16.0781C14.6094 16.2891 14.9492 16.4414 15.3242 16.5352C15.707 16.6289 16.1445 16.6758 16.6367 16.6758C17.6523 16.6758 18.4414 16.4531 19.0039 16.0078C19.5742 15.5625 19.8594 14.8047 19.8594 13.7344V5.14453H21.8281V13.7109C21.8281 14.3672 21.7344 14.957 21.5469 15.4805C21.3594 16.0039 21.1055 16.4414 20.7852 16.793C20.4727 17.1367 20.0938 17.4219 19.6484 17.6484C19.2031 17.875 18.7305 18.0391 18.2305 18.1406C17.7383 18.2422 17.207 18.293 16.6367 18.293C16.0742 18.293 15.543 18.2422 15.043 18.1406C14.543 18.0391 14.0664 17.875 13.6133 17.6484C13.168 17.4141 12.7812 17.125 12.4531 16.7812C12.1328 16.4297 11.8789 15.9922 11.6914 15.4688C11.5039 14.9453 11.4102 14.3594 11.4102 13.7109ZM30.5938 6.50391C29.3516 6.50391 28.3984 6.93359 27.7344 7.79297C27.0781 8.64453 26.75 9.89844 26.75 11.5547C26.75 14.9453 28.0273 16.6406 30.582 16.6406C31.2148 16.6406 31.7695 16.5117 32.2461 16.2539C32.7305 15.9883 33.1094 15.6211 33.3828 15.1523C33.6641 14.6758 33.8711 14.1406 34.0039 13.5469C34.1445 12.9531 34.2148 12.293 34.2148 11.5664C34.2148 10.582 34.0977 9.72266 33.8633 8.98828C33.6367 8.25391 33.2461 7.65625 32.6914 7.19531C32.1367 6.73438 31.4375 6.50391 30.5938 6.50391ZM30.793 4.875C31.9336 4.875 32.918 5.16406 33.7461 5.74219C34.5742 6.32031 35.1953 7.10547 35.6094 8.09766C36.0234 9.08984 36.2305 10.2266 36.2305 11.5078C36.2305 12.8359 36.0234 14.0039 35.6094 15.0117C35.2031 16.0195 34.582 16.8164 33.7461 17.4023C32.918 17.9805 31.9258 18.2695 30.7695 18.2695C29.918 18.2695 29.1406 18.0859 28.4375 17.7188C27.7344 17.3516 27.1484 16.8516 26.6797 16.2188L26.4805 18H24.8047V0.152344L26.7617 0.0351562V4.28906C26.7617 5.33594 26.7461 6.23438 26.7148 6.98438C27.168 6.33594 27.7539 5.82422 28.4727 5.44922C29.1992 5.06641 29.9727 4.875 30.793 4.875ZM42.8281 18.2695C41.9531 18.2695 41.1445 18.1758 40.4023 17.9883C39.668 17.8008 39.0703 17.5586 38.6094 17.2617L38.8555 15.6094C40.1602 16.3047 41.4414 16.6523 42.6992 16.6523C44.6055 16.6523 45.5859 15.9805 45.6406 14.6367C45.6406 14.0664 45.4375 13.6172 45.0312 13.2891C44.625 12.9609 43.8281 12.5938 42.6406 12.1875L41.668 11.8477C40.543 11.4727 39.7383 11.0078 39.2539 10.4531C38.7773 9.89844 38.5352 9.20703 38.5273 8.37891C38.5273 7.37109 38.9297 6.53516 39.7344 5.87109C40.5469 5.20703 41.6562 4.875 43.0625 4.875C44.5156 4.875 45.8398 5.15625 47.0352 5.71875L46.4609 7.21875C45.25 6.71875 44.1172 6.46875 43.0625 6.46875C42.2422 6.46875 41.5977 6.63281 41.1289 6.96094C40.668 7.28125 40.4375 7.73438 40.4375 8.32031C40.4375 8.82031 40.6055 9.20312 40.9414 9.46875C41.2773 9.73438 41.9492 10.0391 42.957 10.3828C43.2148 10.4766 43.5391 10.5859 43.9297 10.7109C45.2266 11.1328 46.1445 11.6328 46.6836 12.2109C47.2227 12.7812 47.4922 13.5547 47.4922 14.5312C47.4766 15.7188 47.0508 16.6406 46.2148 17.2969C45.3789 17.9453 44.25 18.2695 42.8281 18.2695ZM55.6133 18.2695C53.7227 18.2695 52.2422 17.6562 51.1719 16.4297C50.1094 15.2031 49.5781 13.5977 49.5781 11.6133C49.5859 9.61328 50.1289 7.99219 51.207 6.75C52.293 5.5 53.7773 4.875 55.6602 4.875C56.3242 4.875 56.9648 4.95703 57.582 5.12109C58.207 5.28516 58.6992 5.5 59.0586 5.76562L58.5195 7.28906C57.6055 6.79688 56.6406 6.55078 55.625 6.55078C54.3828 6.55078 53.3984 7.00391 52.6719 7.91016C51.9531 8.81641 51.5938 10.0547 51.5938 11.625C51.5938 13.1562 51.9492 14.3711 52.6602 15.2695C53.3789 16.1602 54.3711 16.6055 55.6367 16.6055C56.6445 16.6055 57.6758 16.332 58.7305 15.7852L58.9766 17.3438C58.125 17.9609 57.0039 18.2695 55.6133 18.2695ZM67.2852 5.02734C67.6367 5.02734 67.957 5.05078 68.2461 5.09766L68.1758 6.90234C67.8164 6.83984 67.5039 6.80859 67.2383 6.80859C66.1445 6.80859 65.2539 7.19141 64.5664 7.95703C63.8867 8.71484 63.5469 9.65625 63.5469 10.7812V18H61.5898C61.582 10.1094 61.5781 5.82422 61.5781 5.14453H63.207L63.3945 7.45312C63.8398 6.72656 64.4062 6.14062 65.0938 5.69531C65.7812 5.25 66.5117 5.02734 67.2852 5.02734ZM72.5703 5.14453V18H70.6016V5.14453H72.5703ZM72.5703 0.46875V2.78906H70.6016V0.46875H72.5703ZM76.2617 23.5781V5.14453H77.9844L78.1719 6.89062C79.2969 5.54688 80.6484 4.875 82.2266 4.875C83.3984 4.875 84.3906 5.16797 85.2031 5.75391C86.0156 6.33984 86.6133 7.13281 86.9961 8.13281C87.3867 9.13281 87.582 10.3008 87.582 11.6367C87.582 12.918 87.3711 14.0586 86.9492 15.0586C86.5273 16.0508 85.9062 16.8359 85.0859 17.4141C84.2734 17.9844 83.3203 18.2695 82.2266 18.2695C81.3984 18.2695 80.6211 18.0859 79.8945 17.7188C79.168 17.3438 78.5859 16.8516 78.1484 16.2422C78.1953 17.0859 78.2188 17.9062 78.2188 18.7031V23.4492L76.2617 23.5781ZM81.957 16.6172C82.5508 16.6172 83.082 16.4844 83.5508 16.2188C84.0195 15.9453 84.3984 15.5742 84.6875 15.1055C84.9766 14.6367 85.1953 14.1055 85.3438 13.5117C85.4922 12.9102 85.5664 12.2617 85.5664 11.5664C85.5664 10.0977 85.2578 8.89453 84.6406 7.95703C84.0234 7.01172 83.1211 6.53906 81.9336 6.53906C79.4492 6.53906 78.207 8.14453 78.207 11.3555C78.207 13.0977 78.4961 14.4102 79.0742 15.293C79.6602 16.1758 80.6211 16.6172 81.957 16.6172ZM94.4492 18.2344C93.1836 18.2344 92.2852 17.9258 91.7539 17.3086C91.2227 16.6914 90.9414 15.6953 90.9102 14.3203V6.59766H89L89.082 5.30859L90.8984 5.14453L91.5664 2.20312L92.8555 2.15625V5.14453H96.4297V6.59766H92.8555V13.9688C92.8555 14.9453 93.0039 15.6328 93.3008 16.0312C93.5977 16.4297 94.1055 16.6289 94.8242 16.6289C95.082 16.6289 95.6406 16.5664 96.5 16.4414L96.582 17.9883C95.6523 18.1523 94.9414 18.2344 94.4492 18.2344ZM100.977 5.14453V18H99.0078V5.14453H100.977ZM100.977 0.46875V2.78906H99.0078V0.46875H100.977ZM106.098 11.6016C106.098 13.125 106.434 14.3477 107.105 15.2695C107.785 16.1836 108.773 16.6406 110.07 16.6406C111.352 16.6406 112.316 16.1836 112.965 15.2695C113.621 14.3555 113.949 13.125 113.949 11.5781C113.949 10.0078 113.625 8.77344 112.977 7.875C112.336 6.96875 111.355 6.51562 110.035 6.51562C108.754 6.51562 107.777 6.97656 107.105 7.89844C106.434 8.82031 106.098 10.0547 106.098 11.6016ZM115.977 11.5664C115.977 13.5586 115.445 15.1758 114.383 16.418C113.32 17.6523 111.852 18.2695 109.977 18.2695C108.172 18.2695 106.734 17.6445 105.664 16.3945C104.602 15.1445 104.07 13.5391 104.07 11.5781C104.07 9.57812 104.605 7.96094 105.676 6.72656C106.746 5.49219 108.215 4.875 110.082 4.875C111.918 4.875 113.359 5.49609 114.406 6.73828C115.453 7.97266 115.977 9.58203 115.977 11.5664ZM118.754 18V5.14453H120.395L120.641 6.98438C121.148 6.35156 121.781 5.84375 122.539 5.46094C123.305 5.07031 124.129 4.875 125.012 4.875C126.496 4.875 127.594 5.29297 128.305 6.12891C129.016 6.95703 129.371 8.23438 129.371 9.96094V18H127.414C127.414 12.8438 127.41 10.082 127.402 9.71484C127.371 8.62109 127.148 7.82031 126.734 7.3125C126.328 6.80469 125.645 6.55078 124.684 6.55078C123.676 6.55078 122.836 6.79297 122.164 7.27734C121.492 7.76172 121.055 8.39062 120.852 9.16406C120.773 9.6875 120.734 10.2891 120.734 10.9688V18H118.754Z" fill="#95C22B"/>
<path d="M149.727 18C147.922 12.2344 146.805 8.64453 146.375 7.23047C146.133 8.08984 145.855 9.01953 145.543 10.0195C145.23 11.0195 144.957 11.8789 144.723 12.5977C144.488 13.3164 144.184 14.2461 143.809 15.3867C143.434 16.5273 143.148 17.3984 142.953 18H140.844L137.176 5.14453H139.203L141.957 15.668C142.34 14.418 143.465 10.9102 145.332 5.14453H147.547C149.406 11.0352 150.5 14.5312 150.828 15.6328L153.547 5.14453H155.551L151.848 18H149.727ZM164.738 7.52344C164.168 6.83594 163.383 6.49219 162.383 6.49219C161.383 6.49219 160.566 6.84766 159.934 7.55859C159.301 8.26172 158.93 9.22656 158.82 10.4531H165.605C165.605 9.17969 165.316 8.20312 164.738 7.52344ZM162.77 18.2695C160.902 18.2695 159.43 17.6758 158.352 16.4883C157.281 15.3008 156.746 13.6758 156.746 11.6133C156.746 9.62109 157.266 8.00781 158.305 6.77344C159.344 5.53125 160.711 4.89844 162.406 4.875C164 4.875 165.262 5.42188 166.191 6.51562C167.129 7.60156 167.598 9.05469 167.598 10.875C167.598 10.9688 167.594 11.1406 167.586 11.3906C167.586 11.6406 167.586 11.8203 167.586 11.9297H158.762C158.785 13.3906 159.16 14.5312 159.887 15.3516C160.621 16.1641 161.605 16.5703 162.84 16.5703C164.199 16.5703 165.562 16.2109 166.93 15.4922L167.234 17.0742C165.93 17.8711 164.441 18.2695 162.77 18.2695ZM177.723 7.52344C177.152 6.83594 176.367 6.49219 175.367 6.49219C174.367 6.49219 173.551 6.84766 172.918 7.55859C172.285 8.26172 171.914 9.22656 171.805 10.4531H178.59C178.59 9.17969 178.301 8.20312 177.723 7.52344ZM175.754 18.2695C173.887 18.2695 172.414 17.6758 171.336 16.4883C170.266 15.3008 169.73 13.6758 169.73 11.6133C169.73 9.62109 170.25 8.00781 171.289 6.77344C172.328 5.53125 173.695 4.89844 175.391 4.875C176.984 4.875 178.246 5.42188 179.176 6.51562C180.113 7.60156 180.582 9.05469 180.582 10.875C180.582 10.9688 180.578 11.1406 180.57 11.3906C180.57 11.6406 180.57 11.8203 180.57 11.9297H171.746C171.77 13.3906 172.145 14.5312 172.871 15.3516C173.605 16.1641 174.59 16.5703 175.824 16.5703C177.184 16.5703 178.547 16.2109 179.914 15.4922L180.219 17.0742C178.914 17.8711 177.426 18.2695 175.754 18.2695ZM183.324 18V0.152344L185.27 0.0351562V9.375V11.0156C185.316 10.9688 185.387 10.8906 185.48 10.7812C185.574 10.6719 185.648 10.5898 185.703 10.5352C186.383 9.79297 188.141 7.99609 190.977 5.14453H193.461L188.117 10.5586L193.836 18H191.398L186.699 11.6719L185.27 12.9023V18H183.324ZM198.969 18.2344C197.719 18.2344 196.832 17.8984 196.309 17.2266C195.793 16.5547 195.535 15.3867 195.535 13.7227V0.152344L197.48 0.0351562V12.9492C197.48 13.4805 197.484 13.9062 197.492 14.2266C197.508 14.5469 197.539 14.8633 197.586 15.1758C197.633 15.4805 197.695 15.7109 197.773 15.8672C197.852 16.0234 197.965 16.168 198.113 16.3008C198.262 16.4258 198.438 16.5117 198.641 16.5586C198.852 16.5977 199.109 16.6172 199.414 16.6172C199.664 16.6172 200.156 16.5703 200.891 16.4766L200.996 18.0352C200.191 18.168 199.516 18.2344 198.969 18.2344ZM200.551 5.14453H202.625L206.68 15.8438L210.289 5.14453H212.363C208.895 14.6914 207.102 19.6133 206.984 19.9102C206.445 21.2617 205.793 22.25 205.027 22.875C204.262 23.5078 203.254 23.8242 202.004 23.8242C201.629 23.8242 201.234 23.793 200.82 23.7305L200.703 22.0664C201.141 22.0977 201.469 22.1133 201.688 22.1133C202.57 22.1133 203.238 21.9492 203.691 21.6211C204.152 21.3008 204.562 20.6953 204.922 19.8047C205.242 18.9844 205.48 18.3516 205.637 17.9062L200.551 5.14453Z" fill="white"/>
</svg>
